<svg width="64" height="7" viewBox="0 0 64 7" fill="none" xmlns="http://www.w3.org/2000/svg">
<path d="M28.6753 0.185271C26.8468 0.333487 23.0234 0.600277 20.1143 0.778137C14.6286 1.10421 5.07013 2.55674 3.32468 3.29782C2.74286 3.53497 1.74545 3.74247 1.16364 3.74247C0.498701 3.74247 0 4.00926 0 4.30569C0 4.77998 0.748052 4.9282 4.82078 5.07642C16.2078 5.49142 24.2701 5.90643 32.4156 6.44001C44.3844 7.21074 54.2753 7.18109 58.5974 6.38072C62.5039 5.66928 64 5.04677 64 4.18712C64 3.47568 62.1714 1.96387 61.3403 1.96387C61.0078 1.96387 60.2597 1.78601 59.5948 1.54886C56.6857 0.511347 52.0312 0.096341 41.974 0.007411C36.4883 -0.0222323 30.5039 0.0370542 28.6753 0.185271Z" fill="#FF5800"/>
</svg>
