<svg width="94" height="7" viewBox="0 0 94 7" fill="none" xmlns="http://www.w3.org/2000/svg">
<path d="M42.1169 0.185271C39.4312 0.333487 33.8156 0.600277 29.5429 0.778137C21.4857 1.10421 7.44675 2.55674 4.88312 3.29782C4.02857 3.53497 2.56364 3.74247 1.70909 3.74247C0.732468 3.74247 0 4.00926 0 4.30569C0 4.77998 1.0987 4.9282 7.08052 5.07642C23.8052 5.49142 35.6468 5.90643 47.6104 6.44001C65.1896 7.21074 79.7169 7.18109 86.0649 6.38072C91.8026 5.66928 94 5.04677 94 4.18712C94 3.47568 91.3143 1.96387 90.0935 1.96387C89.6052 1.96387 88.5065 1.78601 87.5299 1.54886C83.2571 0.511347 76.4208 0.096341 61.6494 0.007411C53.5922 -0.0222323 44.8026 0.0370542 42.1169 0.185271Z" fill="#FF5800"/>
</svg>
