<svg width="20" height="20" viewBox="0 0 20 20" fill="none" xmlns="http://www.w3.org/2000/svg">
<path fill-rule="evenodd" clip-rule="evenodd" d="M10.4167 2.5C6.04441 2.5 2.5 6.04441 2.5 10.4167C2.5 14.7889 6.04441 18.3333 10.4167 18.3333C14.7889 18.3333 18.3333 14.7889 18.3333 10.4167C18.3333 8.31704 17.4993 6.3034 16.0146 4.81874C14.5299 3.33407 12.5163 2.5 10.4167 2.5ZM9.01666 9.06667C8.65937 9.06667 8.30207 9.42293 7.94374 9.78023C7.58333 10.1396 7.22188 10.5 6.85833 10.5C6.66688 10.4954 6.4819 10.5694 6.34649 10.7048C6.21107 10.8402 6.13705 11.0252 6.14166 11.2167L6.85833 12.6583C6.85833 12.6583 6.85833 14.8167 7.58333 15.5333C8.30833 16.25 7.58333 16.25 7.58333 16.25C5.48123 15.4048 4.02758 13.4558 3.81666 11.2C3.65064 9.53657 4.12774 7.8727 5.15 6.55C5.26536 6.39331 5.4456 6.29743 5.64 6.28933C5.83441 6.28123 6.022 6.36178 6.15 6.50833C6.31166 6.7439 6.57312 6.89155 6.85833 6.90833C7.58333 6.90833 9.74167 9.06667 9.01666 9.06667ZM15.025 12.4483C15.4399 12.676 15.8324 12.8913 16.1083 12.7667C17.3167 12.225 16.9 9 16.9 9C16.9 9 16.2917 6.18333 14.6667 5.575C14.4443 5.50088 14.2749 5.81028 14.0832 6.16036C13.8654 6.55809 13.6189 7.00833 13.2333 7.00833C12.5083 7.00833 11.7917 7.01667 11.7917 7.73333C11.7917 8.09167 12.1521 8.45208 12.5125 8.8125C12.8729 9.17292 13.2333 9.53333 13.2333 9.89167C13.2333 10.6083 13.2333 12.0417 13.95 12.0417C14.2839 12.0417 14.663 12.2497 15.025 12.4483Z" fill="white"/>
</svg>
