<svg width="20" height="20" viewBox="0 0 20 20" fill="none" xmlns="http://www.w3.org/2000/svg">
<path fill-rule="evenodd" clip-rule="evenodd" d="M10.4167 2.50001C6.04447 2.50001 2.50006 6.04442 2.50006 10.4167C2.50006 14.7889 6.04447 18.3333 10.4167 18.3333C14.789 18.3333 18.3334 14.7889 18.3334 10.4167C18.3334 8.31704 17.4993 6.30341 16.0147 4.81875C14.53 3.33408 12.5164 2.50001 10.4167 2.50001ZM9.01673 9.06667C8.65943 9.06667 8.30213 9.42294 7.9438 9.78023C7.58339 10.1396 7.22194 10.5 6.85839 10.5C6.66694 10.4954 6.48196 10.5694 6.34655 10.7048C6.21113 10.8402 6.13711 11.0252 6.14173 11.2167L6.85839 12.6583C6.85839 12.6583 6.85839 14.8167 7.58339 15.5333C8.30839 16.25 7.58339 16.25 7.58339 16.25C5.48129 15.4048 4.02764 13.4558 3.81673 11.2C3.6507 9.53658 4.1278 7.87271 5.15006 6.55001C5.26542 6.39332 5.44566 6.29744 5.64007 6.28934C5.83448 6.28124 6.02206 6.36179 6.15006 6.50834C6.31172 6.74391 6.57318 6.89156 6.85839 6.90834C7.58339 6.90834 9.74173 9.06667 9.01673 9.06667ZM15.025 12.4483C15.44 12.676 15.8324 12.8913 16.1084 12.7667C17.3167 12.225 16.9001 9.00001 16.9001 9.00001C16.9001 9.00001 16.2917 6.18334 14.6667 5.57501C14.4444 5.50089 14.275 5.81029 14.0833 6.16037C13.8655 6.5581 13.619 7.00834 13.2334 7.00834C12.5084 7.00834 11.7917 7.01667 11.7917 7.73334C11.7917 8.09167 12.1521 8.45209 12.5126 8.81251C12.873 9.17292 13.2334 9.53334 13.2334 9.89167C13.2334 10.6083 13.2334 12.0417 13.9501 12.0417C14.2839 12.0417 14.6631 12.2497 15.025 12.4483Z" fill="#015186"/>
</svg>
