<svg width="40" height="40" viewBox="0 0 40 40" fill="none" xmlns="http://www.w3.org/2000/svg">
<path fill-rule="evenodd" clip-rule="evenodd" d="M11.25 19.5833C11.25 14.981 14.981 11.25 19.5833 11.25C21.7935 11.25 23.9131 12.128 25.4759 13.6908C27.0387 15.2536 27.9167 17.3732 27.9167 19.5833C27.9167 24.1857 24.1857 27.9167 19.5833 27.9167C14.981 27.9167 11.25 24.1857 11.25 19.5833ZM14.194 21.8157C15.0969 23.9954 17.224 25.4167 19.5833 25.4167C22.805 25.4167 25.4167 22.805 25.4167 19.5833C25.4167 17.224 23.9954 15.0969 21.8157 14.194C19.6359 13.2912 17.1269 13.7902 15.4585 15.4585C13.7902 17.1269 13.2911 19.6359 14.194 21.8157Z" fill="white"/>
<path d="M19.5833 9.16667C20.2699 9.1577 20.8244 8.60327 20.8333 7.91667V2.91667C20.8333 2.22632 20.2737 1.66667 19.5833 1.66667C18.893 1.66667 18.3333 2.22632 18.3333 2.91667V7.91667C18.3423 8.60327 18.8967 9.1577 19.5833 9.16667Z" fill="white"/>
<path d="M19.5833 30C18.8967 30.009 18.3423 30.5634 18.3333 31.25V36.25C18.3333 36.9404 18.893 37.5 19.5833 37.5C20.2737 37.5 20.8333 36.9404 20.8333 36.25V31.25C20.8244 30.5634 20.2699 30.009 19.5833 30Z" fill="white"/>
<path d="M10.45 12.2167C10.938 12.7041 11.7286 12.7041 12.2167 12.2167C12.7041 11.7286 12.7041 10.938 12.2167 10.45L8.68334 6.91667C8.37172 6.58225 7.90241 6.44459 7.45952 6.5577C7.01663 6.6708 6.6708 7.01663 6.5577 7.45952C6.44459 7.90241 6.58225 8.37172 6.91667 8.68334L10.45 12.2167Z" fill="white"/>
<path d="M28.7167 26.95C28.2242 26.4911 27.4567 26.5046 26.9806 26.9806C26.5046 27.4567 26.4911 28.2242 26.95 28.7167L30.4833 32.25C30.7165 32.4861 31.0349 32.6182 31.3667 32.6167C31.6988 32.6202 32.018 32.4877 32.25 32.25C32.7374 31.762 32.7374 30.9714 32.25 30.4833L28.7167 26.95Z" fill="white"/>
<path d="M9.16667 19.5833C9.1577 18.8967 8.60327 18.3423 7.91667 18.3333H2.91667C2.22632 18.3333 1.66667 18.893 1.66667 19.5833C1.66667 20.2737 2.22632 20.8333 2.91667 20.8333H7.91667C8.60327 20.8244 9.1577 20.2699 9.16667 19.5833Z" fill="white"/>
<path d="M36.25 18.3333H31.25C30.5596 18.3333 30 18.893 30 19.5833C30 20.2737 30.5596 20.8333 31.25 20.8333H36.25C36.9404 20.8333 37.5 20.2737 37.5 19.5833C37.5 18.893 36.9404 18.3333 36.25 18.3333Z" fill="white"/>
<path d="M10.45 26.95L6.91667 30.4833C6.42925 30.9714 6.42925 31.762 6.91667 32.25C7.14871 32.4877 7.46785 32.6202 7.8 32.6167C8.13178 32.6182 8.4502 32.4861 8.68334 32.25L12.2167 28.7167C12.6756 28.2242 12.6621 27.4567 12.186 26.9806C11.71 26.5046 10.9425 26.4911 10.45 26.95Z" fill="white"/>
<path d="M27.9167 12.5833C28.2484 12.5849 28.5669 12.4527 28.8 12.2167L32.25 8.68334C32.5844 8.37172 32.7221 7.90241 32.609 7.45952C32.4959 7.01663 32.15 6.6708 31.7072 6.5577C31.2643 6.44459 30.795 6.58225 30.4833 6.91667L26.95 10.45C26.4626 10.938 26.4626 11.7286 26.95 12.2167C27.203 12.4746 27.5563 12.6086 27.9167 12.5833Z" fill="white"/>
</svg>
