<svg width="20" height="20" viewBox="0 0 20 20" fill="none" xmlns="http://www.w3.org/2000/svg">
<path fill-rule="evenodd" clip-rule="evenodd" d="M1.66675 10.0669C1.66675 5.42767 5.42756 1.66687 10.0667 1.66687C10.6839 1.66377 11.2993 1.7337 11.9001 1.8752C9.52245 2.55596 7.96634 4.833 8.1959 7.29549C8.42546 9.75798 10.3756 11.7082 12.8381 11.9377C15.3006 12.1673 17.5777 10.6112 18.2584 8.23353C18.3999 8.83429 18.4698 9.44968 18.4667 10.0669C18.4667 14.7061 14.7059 18.4669 10.0667 18.4669C5.42756 18.4669 1.66675 14.7061 1.66675 10.0669ZM8.78588 11.347C6.60674 9.16993 6.29038 5.74827 8.03342 3.20853C4.75269 4.18291 2.62248 7.34544 2.95238 10.7519C3.28229 14.1583 5.97979 16.8533 9.38652 17.18C12.7933 17.5067 15.9538 15.3735 16.9251 12.0919C14.387 13.8373 10.965 13.5241 8.78588 11.347Z" fill="#015186"/>
</svg>
