<svg width="55" height="7" viewBox="0 0 55 7" fill="none" xmlns="http://www.w3.org/2000/svg">
<path d="M24.6429 0.185271C23.0714 0.333487 19.7857 0.600277 17.2857 0.778137C12.5714 1.10421 4.35714 2.55674 2.85714 3.29782C2.35714 3.53497 1.5 3.74247 1 3.74247C0.428571 3.74247 0 4.00926 0 4.30569C0 4.77998 0.642857 4.9282 4.14286 5.07642C13.9286 5.49142 20.8571 5.90643 27.8571 6.44001C38.1429 7.21074 46.6429 7.18109 50.3571 6.38072C53.7143 5.66928 55 5.04677 55 4.18712C55 3.47568 53.4286 1.96387 52.7143 1.96387C52.4286 1.96387 51.7857 1.78601 51.2143 1.54886C48.7143 0.511347 44.7143 0.096341 36.0714 0.007411C31.3571 -0.0222323 26.2143 0.0370542 24.6429 0.185271Z" fill="#015186"/>
</svg>
